<svg xmlns="http://www.w3.org/2000/svg" xmlns:xlink="http://www.w3.org/1999/xlink" viewBox="599.383 -847 30.031 29.75">
  <defs>
    <style>
      .cls-1 {
        fill: #fff;
      }

      .cls-2 {
        filter: url(#Path_4);
      }
    </style>
    <filter id="Path_4" x="599.383" y="-847" width="30.031" height="29.75" filterUnits="userSpaceOnUse">
      <feOffset input="SourceAlpha"/>
      <feGaussianBlur stdDeviation="3" result="blur"/>
      <feFlood flood-opacity="0.161"/>
      <feComposite operator="in" in2="blur"/>
      <feComposite in="SourceGraphic"/>
    </filter>
  </defs>
  <g id="close" transform="translate(608.383 -838.413)">
    <g id="Group_2" data-name="Group 2" transform="translate(0 0.413)">
      <g class="cls-2" transform="matrix(1, 0, 0, 1, -608.38, 838)">
        <path id="Path_4-2" data-name="Path 4" class="cls-1" d="M6.976,6.148l4.575-4.575a.679.679,0,1,0-.961-.961L6.016,5.187,1.441.612a.679.679,0,0,0-.961.961L5.055,6.148.2,11a.679.679,0,1,0,.961.961L6.016,7.109l4.856,4.856A.679.679,0,0,0,11.832,11Z" transform="translate(608.38 -838.41)"/>
      </g>
    </g>
  </g>
</svg>
